<?xml version="1.0" encoding="utf-8"?>
<svg viewBox="0 0 128 128" fill="none" xmlns="http://www.w3.org/2000/svg">
    <g transform="matrix(5.565217018127441, 0, 0, 5.565217018127441, -192.00009155273438, -2.782646894454956)">
        <path d="M 46 2.992 L 53.888 7.496 L 53.888 16.504 L 46 21.008 L 38.112 16.504 L 38.112 7.496 L 46 2.992 Z M 46 0.5 C 45.637 0.5 45.275 0.592 44.948 0.78 L 36.702 5.489 C 36.052 5.861 35.65 6.547 35.65 7.291 L 35.65 16.709 C 35.65 17.453 36.052 18.139 36.702 18.511 L 44.948 23.22 C 45.275 23.408 45.637 23.5 46 23.5 C 46.363 23.5 46.725 23.408 47.052 23.22 L 55.298 18.511 C 55.948 18.139 56.35 17.453 56.35 16.709 L 56.35 7.291 C 56.35 6.547 55.948 5.861 55.298 5.489 L 47.052 0.78 C 46.725 0.592 46.363 0.5 46 0.5 Z" fill="#261F3B"/>
        <path d="M 42.047 10.194 L 42.047 13.802 C 42.047 14.081 42.198 14.344 42.445 14.484 L 45.606 16.29 C 45.854 16.43 46.155 16.43 46.402 16.29 L 49.564 14.484 C 49.811 14.344 49.962 14.086 49.962 13.802 L 49.962 10.194 C 49.962 9.914 49.811 9.652 49.564 9.512 L 46.402 7.706 C 46.155 7.566 45.854 7.566 45.606 7.706 L 42.445 9.512 C 42.198 9.652 42.047 9.91 42.047 10.194 Z" fill="#261F3B"/>
    </g>
</svg>